PathFileType	4	(X/Y/Z)	S01_0001_Static_markers.trc
DataRate	CameraRate	NumFrames	NumMarkers	Units	OrigDataRate	OrigDataStartFrame	OrigNumFrames
250.000000	250.000000	4	62	mm	250.000000	0	102
Frame#	Time	HEAD_ANT			R_HEAD			L_HEAD			C7			R_BACK			L_BACK			STERNUM			R_ACROMION			R_HUM_PROX			R_HUM_ANT			R_HUM_POST			R_ELBOW_LAT			R_ELBOW_MED			R_FOREARM			R_WIRST_LAT			R_WRITS_MED			R_HAND			L_ACROMION			L_HUM_PROX			L_HUM_ANT			L_HUM_POST			L_ELBOW_LAT			L_ELBOW_MED			L_FOREARM			L_WRIST_LAT			L_WIRST_MED			L_HAND			R_ILIAC			SACRUM			L_ILIAC			R_GTROCH			R_THIGH__1			R_THIGH_2			R_THIGH_3			R_THIGH_4			R_KNEE_LAT			R_KNEE_MED			R_SHANK_1			R_SHANK_2			R_SHANK_3			R_SHANK_4			R_ANKLE_LAT			R_ANKLE_MED			R_HEEL			R_FOOT_LAT			R_FOOT_MED			L_GTROCH			L_THIGH_1			L_THIGH_2			L_THIGH_3			L_THIGH_4			L_KNEE_LAT			L_KNEE_MED			L_SHANK_1			L_SHANK_2			L_SHANK_3			L_SHANK_4			L_ANKLE_LAT			L_ANKLE_MED			L_HEEL			L_FOOT_LAT			L_FOOT_MED			
		X1	Y1	Z1	X2	Y2	Z2	X3	Y3	Z3	X4	Y4	Z4	X5	Y5	Z5	X6	Y6	Z6	X7	Y7	Z7	X8	Y8	Z8	X9	Y9	Z9	X10	Y10	Z10	X11	Y11	Z11	X12	Y12	Z12	X13	Y13	Z13	X14	Y14	Z14	X15	Y15	Z15	X16	Y16	Z16	X17	Y17	Z17	X18	Y18	Z18	X19	Y19	Z19	X20	Y20	Z20	X21	Y21	Z21	X22	Y22	Z22	X23	Y23	Z23	X24	Y24	Z24	X25	Y25	Z25	X26	Y26	Z26	X27	Y27	Z27	X28	Y28	Z28	X29	Y29	Z29	X30	Y30	Z30	X31	Y31	Z31	X32	Y32	Z32	X33	Y33	Z33	X34	Y34	Z34	X35	Y35	Z35	X36	Y36	Z36	X37	Y37	Z37	X38	Y38	Z38	X39	Y39	Z39	X40	Y40	Z40	X41	Y41	Z41	X42	Y42	Z42	X43	Y43	Z43	X44	Y44	Z44	X45	Y45	Z45	X46	Y46	Z46	X47	Y47	Z47	X48	Y48	Z48	X49	Y49	Z49	X50	Y50	Z50	X51	Y51	Z51	X52	Y52	Z52	X53	Y53	Z53	X54	Y54	Z54	X55	Y55	Z55	X56	Y56	Z56	X57	Y57	Z57	X58	Y58	Z58	X59	Y59	Z59	X60	Y60	Z60	X61	Y61	Z61	X62	Y62	Z62	

1	0	438.5424194335938	450.2847290039062	1740.413330078125	509.6246948242188	382.802001953125	1699.211303710938	363.3016357421875	394.7793579101562	1700.415405273438	425.4463806152344	242.3710174560547	1534.009887695312	492.9035339355469	168.6550445556641	1337.312744140625	352.1167907714844	173.3095703125	1338.287841796875	438.7751770019531	419.9391174316406	1373.395629882812	597.7261352539062	307.5072326660156	1492.897338867188	703.7413940429688	262.6579895019531	1350.864501953125	735.3275146484375	326.7522583007812	1273.773681640625	721.2892456054688	204.6445922851562	1266.591552734375	758.6861572265625	255.1651153564453	1170.10498046875	678.92822265625	251.0371551513672	1148.578002929688	828.70166015625	347.5489501953125	997.5820922851562	821.71484375	394.697021484375	930.876220703125	833.4633178710938	318.9028930664062	906.411865234375	881.4869384765625	381.2468872070312	848.6978149414062	264.4488220214844	323.2168273925781	1493.50146484375	162.2571258544922	293.7086181640625	1334.104614257812	147.5225677490234	359.2176208496094	1258.058959960938	140.1826477050781	237.2644958496094	1255.831420898438	112.9597702026367	288.69482421875	1157.720581054688	180.6841583251953	260.6611938476562	1146.9951171875	67.45481109619141	393.1656494140625	987.660400390625	94.2398681640625	441.6531982421875	921.5235595703125	53.05334854125977	375.1963195800781	906.5269165039062	31.41102600097656	447.3178405761719	851.0366821289062	603.9902954101562	321.3735046386719	1082.286499023438	434.3238830566406	188.4719390869141	1061.095703125	258.5633544921875	316.8248291015625	1076.199829101562	612.8547973632812	265.9201354980469	941.9356689453125	616.515380859375	273.9515991210938	664.0955810546875	622.3883666992188	331.3336791992188	674.400634765625	595.298828125	326.760498046875	570.5042724609375	601.44189453125	262.8915405273438	583.546142578125	589.25732421875	300.28466796875	508.8904724121094	478.14453125	302.3725891113281	506.865234375	621.767578125	239.3136749267578	353.4203186035156	607.5352783203125	294.9335327148438	332.0887756347656	593.6586303710938	292.0708923339844	246.6705169677734	603.032958984375	227.8541717529297	252.9823150634766	581.6021728515625	252.9789123535156	65.99991607666016	496.0653991699219	275.1337585449219	80.86050415039062	527.6697998046875	194.1929168701172	41.92322158813477	628.7836303710938	352.2470397949219	19.97268104553223	532.53759765625	415.0661010742188	30.1771068572998	254.0365600585938	271.0853576660156	965.365478515625	250.8909454345703	322.9278564453125	674.71142578125	237.9662628173828	270.653564453125	701.0289916992188	264.5671691894531	247.5870513916016	600.978759765625	270.2523498535156	310.6812133789062	596.075927734375	282.46044921875	268.3586120605469	514.3541259765625	389.82373046875	273.467529296875	501.6488952636719	255.5161285400391	248.8736877441406	338.9667053222656	258.1424865722656	191.5174713134766	318.0375366210938	268.2469177246094	191.5079345703125	231.0861053466797	269.11279296875	255.7146911621094	236.8125762939453	276.24560546875	217.0304260253906	69.14380645751953	360.7829895019531	243.6869659423828	79.62358093261719	329.1514892578125	160.9035797119141	41.10218048095703	233.5286560058594	328.0533752441406	19.09024620056152	335.572998046875	376.6268920898438	27.19769096374512	
2	0.004	438.5578918457031	450.4185180664062	1740.386108398438	509.6163024902344	382.8777465820312	1699.172485351562	363.3016357421875	394.8085632324219	1700.401123046875	425.443359375	242.4481811523438	1534.008056640625	492.9326477050781	168.7048797607422	1337.321899414062	352.1644897460938	173.3035278320312	1338.270874023438	438.787109375	419.9448852539062	1373.361083984375	597.7645263671875	307.5274047851562	1492.943115234375	703.7869873046875	262.7015075683594	1350.86669921875	735.326416015625	326.7980651855469	1273.737670898438	721.36767578125	204.7068023681641	1266.645385742188	758.7325439453125	255.2507934570312	1170.113403320312	678.9530639648438	251.0546875	1148.535400390625	828.7044677734375	347.6174621582031	997.58837890625	821.7128295898438	394.7177429199219	930.8771362304688	833.4638061523438	319.0014953613281	906.400390625	881.479736328125	381.3230285644531	848.6840209960938	264.50537109375	323.2931518554688	1493.4677734375	162.2909698486328	293.7334594726562	1334.099243164062	147.5875701904297	359.207763671875	1258.007690429688	140.2074279785156	237.2107086181641	1255.843017578125	113.0105514526367	288.6914367675781	1157.712524414062	180.7171325683594	260.5997924804688	1146.968383789062	67.54649353027344	393.0755920410156	987.5999145507812	94.29385375976562	441.5300598144531	921.4615478515625	53.11212921142578	375.0870666503906	906.4903564453125	31.50285339355469	447.2157897949219	850.9680786132812	604.0470581054688	321.3597412109375	1082.27978515625	434.3714904785156	188.4282684326172	1061.131713867188	258.5768127441406	316.8345336914062	1076.207641601562	612.8688354492188	265.8672180175781	941.9082641601562	616.9706420898438	273.6103515625	664.1473388671875	622.4024047851562	331.2964172363281	674.3995971679688	595.3538818359375	326.721435546875	570.5003051757812	601.4512329101562	262.892333984375	583.5556640625	589.2649536132812	300.2713928222656	508.8822937011719	478.2478942871094	302.2669067382812	506.8612670898438	621.7684936523438	239.2832183837891	353.4099426269531	607.5792846679688	294.9045104980469	332.0726928710938	593.6590576171875	292.0774841308594	246.6649475097656	603.0193481445312	227.865234375	252.9909820556641	581.6011962890625	252.9721221923828	65.97605133056641	496.0362854003906	275.1685180664062	80.84417724609375	527.666259765625	194.1956024169922	41.9298095703125	628.792724609375	352.2388610839844	19.96584701538086	532.5709228515625	415.0526123046875	30.15123176574707	254.0599517822266	271.0370178222656	965.37158203125	250.9109191894531	322.8782043457031	674.734130859375	238.0034484863281	270.5586547851562	701.0023803710938	264.5959777832031	247.5235137939453	600.9686889648438	270.2626342773438	310.6113586425781	596.0789184570312	282.5107727050781	268.3374633789062	514.348876953125	389.8558044433594	273.4562377929688	501.6229248046875	255.5213928222656	248.9111633300781	338.9858703613281	258.1343688964844	191.5057373046875	318.0618286132812	268.2274475097656	191.5184020996094	231.0941162109375	269.0888671875	255.7249450683594	236.8065032958984	276.2410278320312	217.0462036132812	69.12831115722656	360.8166809082031	243.6526031494141	79.56185150146484	329.1322326660156	160.9250335693359	41.11301422119141	233.5256958007812	328.0715637207031	19.10731506347656	335.54638671875	376.6452331542969	27.19426345825195	
3	0.008	438.5609741210938	450.5320434570312	1740.357055664062	509.6301574707031	383.0031127929688	1699.1943359375	363.3184509277344	394.8708801269531	1700.359985351562	425.4921875	242.4348907470703	1534.005493164062	492.9617614746094	168.7638702392578	1337.347778320312	352.1894226074219	173.3113555908203	1338.289794921875	438.8562316894531	419.9812927246094	1373.353637695312	597.7865600585938	307.5841674804688	1492.919555664062	703.8317260742188	262.74462890625	1350.892822265625	735.3164672851562	326.8984069824219	1273.703369140625	721.4450073242188	204.7687530517578	1266.646728515625	758.7412719726562	255.2942657470703	1170.135009765625	679.0126953125	251.0527648925781	1148.535278320312	828.6903076171875	347.6637268066406	997.576416015625	821.686767578125	394.800537109375	930.8651123046875	833.4837036132812	318.9818420410156	906.486328125	881.467041015625	381.4197387695312	848.6777954101562	264.5165100097656	323.3244934082031	1493.469482421875	162.3329315185547	293.7294006347656	1334.078369140625	147.6371307373047	359.220703125	1257.990600585938	140.2576904296875	237.2347412109375	1255.826049804688	113.0730285644531	288.6006164550781	1157.703979492188	180.8184814453125	260.5934143066406	1146.944580078125	67.60060119628906	392.9701843261719	987.5616455078125	94.40909576416016	441.3847961425781	921.3810424804688	53.17158126831055	374.9459228515625	906.427490234375	31.6059684753418	447.0765686035156	850.8661499023438	604.0850219726562	321.3258361816406	1082.2802734375	434.4064636230469	188.4192199707031	1061.143188476562	258.5854797363281	316.8313903808594	1076.192749023438	612.9226684570312	265.8257751464844	941.8866577148438	616.9728393554688	273.603759765625	664.14111328125	622.433349609375	331.2724304199219	674.4015502929688	595.3618774414062	326.6741027832031	570.5052490234375	601.4513549804688	262.8489685058594	583.5513305664062	589.2864379882812	300.271484375	508.8851013183594	478.2410583496094	302.3216247558594	506.9052124023438	621.8128662109375	239.3013916015625	353.4280395507812	607.5733032226562	294.8764953613281	332.0675964355469	593.66943359375	292.0789184570312	246.6718292236328	603.0265502929688	227.8600769042969	252.9781646728516	581.6114501953125	252.9680633544922	65.99703979492188	496.0359497070312	275.1687622070312	80.84352874755859	527.6978759765625	194.1768951416016	41.93020248413086	628.804931640625	352.2446899414062	19.98368453979492	532.55322265625	415.0603942871094	30.15973281860352	254.0960083007812	271.0276184082031	965.3627319335938	250.9467010498047	322.8543395996094	674.7131958007812	238.0551452636719	270.5101928710938	701.0151977539062	264.6090698242188	247.4951477050781	600.9404296875	270.304443359375	310.5877380371094	596.0682983398438	282.5327758789062	268.3267822265625	514.323486328125	389.89501953125	273.3841247558594	501.6383666992188	255.5615081787109	248.8904876708984	338.9359436035156	258.1434020996094	191.5505065917969	318.0194702148438	268.2422790527344	191.5328369140625	231.0934448242188	269.1156311035156	255.7330169677734	236.8239593505859	276.2713012695312	217.0429382324219	69.11283874511719	360.8377685546875	243.6509552001953	79.55835723876953	329.1763916015625	160.9229278564453	41.09776306152344	233.5500946044922	328.05810546875	19.10461235046387	335.5704345703125	376.6440734863281	27.19657707214355	
4	0.012	438.5427551269531	450.5812072753906	1740.340942382812	509.6146545410156	383.0470886230469	1699.174438476562	363.3038330078125	394.9541625976562	1700.359497070312	425.5094604492188	242.4866943359375	1534.024047851562	493.020751953125	168.7648468017578	1337.374389648438	352.2477416992188	173.3340759277344	1338.296875	438.8813171386719	419.9938659667969	1373.35205078125	597.815185546875	307.66064453125	1492.926147460938	703.8645629882812	262.7863159179688	1350.883422851562	735.3080444335938	326.9178771972656	1273.655029296875	721.5114135742188	204.8202362060547	1266.664672851562	758.7645874023438	255.3456420898438	1170.131225585938	679.0115966796875	251.0598449707031	1148.546630859375	828.699951171875	347.7156982421875	997.591064453125	821.61962890625	394.8443603515625	930.8651123046875	833.458740234375	319.0762329101562	906.423095703125	881.413330078125	381.5396118164062	848.6978759765625	264.5347595214844	323.3478088378906	1493.44921875	162.3709259033203	293.7532958984375	1334.046020507812	147.7036895751953	359.1997375488281	1257.96240234375	140.2953033447266	237.2427368164062	1255.82421875	113.1323852539062	288.6033020019531	1157.663696289062	180.9023895263672	260.5423583984375	1146.958862304688	67.67714691162109	392.8519897460938	987.502197265625	94.47736358642578	441.2665405273438	921.2487182617188	53.24404525756836	374.8216552734375	906.3898315429688	31.70820617675781	446.935546875	850.782470703125	604.1249389648438	321.3040466308594	1082.294555664062	434.4208679199219	188.3804016113281	1061.162841796875	258.6156921386719	316.7612609863281	1076.202392578125	612.9584350585938	265.7929992675781	941.901123046875	616.5747680664062	273.8606567382812	664.07373046875	622.4300537109375	331.2449645996094	674.3998413085938	595.3948364257812	326.6661682128906	570.4730224609375	601.4813842773438	262.79296875	583.54150390625	589.308349609375	300.21630859375	508.9005432128906	478.2796630859375	302.271240234375	506.87451171875	621.8157958984375	239.2939605712891	353.4476318359375	607.578369140625	294.8624877929688	332.0491943359375	593.6685180664062	292.0617065429688	246.6663513183594	603.017333984375	227.8696136474609	252.9537506103516	581.593017578125	253.0122833251953	65.99665832519531	496.0304565429688	275.1572570800781	80.83486175537109	527.6941528320312	194.1930084228516	41.92375564575195	628.7906494140625	352.2545471191406	19.95784759521484	532.5321655273438	415.0453186035156	30.17054176330566	254.1268310546875	270.9981079101562	965.370361328125	250.9723205566406	322.8262329101562	674.7259521484375	238.1022491455078	270.5088500976562	701.0078735351562	264.6151733398438	247.4476623535156	600.9605712890625	270.3014526367188	310.5736083984375	596.0830078125	282.5618286132812	268.2632141113281	514.2994995117188	389.941162109375	273.3918762207031	501.6183471679688	255.565185546875	248.8991241455078	338.9122924804688	258.11767578125	191.5343933105469	318.0329895019531	268.26220703125	191.5252227783203	231.1286010742188	269.1576843261719	255.7156982421875	236.7859649658203	276.2436218261719	217.0626525878906	69.14022827148438	360.8272094726562	243.6471710205078	79.57284545898438	329.1644287109375	160.9204711914062	41.07707214355469	233.5553283691406	328.0509643554688	19.08899879455566	335.5559997558594	376.6432495117188	27.19636344909668	
